HIERARCHY
ROOT Hips
{
    OFFSET 0.000000 0.000000 0.000000
    CHANNELS 6 Xposition Yposition Zposition Zrotation Xrotation Yrotation
        JOINT Chest
        {
            OFFSET -0.000000 31.471069 -0.000000
            CHANNELS 3 Zrotation Xrotation Yrotation
            JOINT Neck
            {
                OFFSET -0.000000 23.202770 0.000000
                CHANNELS 3 Zrotation Xrotation Yrotation
                JOINT Head
                {
                    OFFSET -0.000000 11.000000 0.000000
                    CHANNELS 3 Zrotation Xrotation Yrotation
                    End Site
                    {
                        OFFSET -0.000000 17.000000 0.000000
                    }
                }
            }
            JOINT LeftCollar
            {
                OFFSET -0.000000 23.202770 0.000000
                CHANNELS 3 Zrotation Xrotation Yrotation
                JOINT LeftShoulder
                {
                    OFFSET 21.000000 -0.000000 0.000000
                    CHANNELS 3 Zrotation Xrotation Yrotation
                    JOINT LeftElbow
                    {
                        OFFSET 23.506504 0.000000 0.000000
                        CHANNELS 3 Zrotation Xrotation Yrotation
                        JOINT LeftWrist
                        {
                            OFFSET 26.183235 0.000000 0.000000
                            CHANNELS 3 Zrotation Xrotation Yrotation
                            End Site
                            {
                                OFFSET 0.000000 -15.000001 0.000000
                            }
                        }
                    }
                }
            }
            JOINT RightCollar
            {
                OFFSET -0.000000 23.202770 0.000000
                CHANNELS 3 Zrotation Xrotation Yrotation
                JOINT RightShoulder
                {
                    OFFSET -21.000000 0.000000 0.000000
                    CHANNELS 3 Zrotation Xrotation Yrotation
                    JOINT RightElbow
                    {
                        OFFSET -23.506504 0.000000 0.000000
                        CHANNELS 3 Zrotation Xrotation Yrotation
                        JOINT RightWrist
                        {
                            OFFSET -26.183235 0.000000 0.000000
                            CHANNELS 3 Zrotation Xrotation Yrotation
                            End Site
                            {
                                OFFSET -0.000000 -15.000001 0.000000
                            }
                        }
                    }
                }
            }
        }
    JOINT LeftHip
    {
        OFFSET 12.000000 0.000000 0.000000
        CHANNELS 3 Zrotation Xrotation Yrotation
        JOINT LeftKnee
        {
            OFFSET -0.000000 -41.026867 0.000000
            CHANNELS 3 Zrotation Xrotation Yrotation
            JOINT LeftAnkle
            {
                OFFSET -0.000000 -42.711906 0.000000
                CHANNELS 3 Zrotation Xrotation Yrotation
                End Site
                {
                    OFFSET -0.000000 -5.000000 17.000000
                }
            }
        }
    }
    JOINT RightHip
    {
        OFFSET -12.000000 0.000000 0.000000
        CHANNELS 3 Zrotation Xrotation Yrotation
        JOINT RightKnee
        {
            OFFSET -0.000000 -41.026867 0.000000
            CHANNELS 3 Zrotation Xrotation Yrotation
            JOINT RightAnkle
            {
                OFFSET -0.000000 -42.711906 0.000000
                CHANNELS 3 Zrotation Xrotation Yrotation
                End Site
                {
                    OFFSET -0.000000 -5.000000 17.000000
                }
            }
        }
    }
}
MOTION
Frames:    13
Frame Time:    0.010000
84.088058    89.683998    -56.294430    -5.619091    -5.428851    -72.758820    -3.930890    9.108437    -3.826485    1.540956    6.088439    -14.226984    10.796580    11.273855    -15.214326    -19.180677    -0.778843    4.721029    -47.129177    27.795534    -8.921256    -16.663891    4.567010    -30.395102    101.943405    -14.005087    -42.358334    26.666328    -1.514796    -6.482244    47.013149    48.239128    2.194132    -10.999838    -2.192048    22.460968    -100.956703    7.419928    -1.285536    -6.632169    11.753552    -10.374070    2.436883    -7.323299    12.646136    2.819638    -2.735767    35.909382    -8.400101    1.243789    -1.194569    0.864666    36.883915    -10.084839    13.475237    -9.400847    -13.095760    
84.262672    89.680397    -56.692749    -5.418995    -5.355515    -73.003754    -3.941936    8.875529    -3.736766    1.542874    6.116862    -14.138516    10.679996    11.249386    -15.111440    -19.203146    -0.808770    4.723213    -47.312572    27.759031    -8.744379    -16.654764    4.584608    -30.469749    101.850952    -14.022593    -42.491249    26.688179    -1.545430    -6.462891    46.912128    48.402012    2.357873    -11.106148    -2.214550    22.450710    -100.902321    7.469384    -1.350620    -6.448082    11.382598    -10.497957    2.502732    -7.360163    12.921095    2.646785    -2.607906    35.982754    -8.149213    1.941954    -1.349610    0.736600    34.929119    -10.093034    12.812232    -10.216033    -12.624782    
84.447113    89.678299    -57.102371    -5.207902    -5.265768    -73.253601    -3.940875    8.632006    -3.658142    1.564411    6.154477    -14.045672    10.546268    11.201759    -14.999226    -19.235519    -0.791596    4.724179    -47.473980    27.688272    -8.588444    -16.750534    4.617744    -30.396605    101.825348    -14.076220    -42.698956    26.720942    -1.529222    -6.432980    46.803326    48.487125    2.510875    -11.113247    -2.196076    22.445114    -100.858650    7.495802    -1.366187    -6.243719    10.986803    -10.583566    2.563525    -7.391644    13.164330    2.456867    -2.490905    36.054745    -7.890164    2.566654    -1.544164    0.663705    32.997887    -10.132581    12.228823    -10.991319    -12.244452    
84.642365    89.677986    -57.522839    -4.988806    -5.158268    -73.505318    -3.923754    8.383985    -3.592147    1.604311    6.199994    -13.949449    10.397287    11.129779    -14.879044    -19.272663    -0.794665    4.723302    -47.629387    27.662491    -8.448850    -16.754284    4.597006    -30.349062    101.744057    -14.056662    -42.904144    26.759771    -1.499105    -6.391091    46.663197    48.552116    2.705413    -11.147585    -2.210252    22.449057    -100.783134    7.530510    -1.416740    -6.016683    10.567235    -10.630854    2.618593    -7.415834    13.372470    2.257235    -2.379950    36.121979    -7.619887    3.109362    -1.796649    0.627666    31.129194    -10.165504    11.715120    -11.685839    -11.954193    
84.848900    89.679787    -57.953674    -4.765806    -5.032115    -73.755394    -3.886705    8.139208    -3.540293    1.662639    6.250775    -13.852757    10.234629    11.033285    -14.753510    -19.313240    -0.826086    4.717196    -47.786366    27.675724    -8.302231    -16.715319    4.574300    -30.272503    101.649986    -13.991633    -43.076908    26.797915    -1.503359    -6.338720    46.523331    48.631832    2.900919    -11.229228    -2.243970    22.461996    -100.656975    7.569276    -1.526194    -5.764456    10.126146    -10.640939    2.666897    -7.430433    13.542670    2.055187    -2.270663    36.181862    -7.334227    3.566691    -2.121496    0.610806    29.354725    -10.160287    11.259239    -12.268081    -11.747097    
85.066719    89.683968    -58.394371    -4.543658    -4.887042    -74.000145    -3.825727    7.906371    -3.503765    1.736858    6.304267    -13.756463    10.061337    10.912160    -14.624961    -19.363907    -0.802189    4.703760    -47.918873    27.652946    -8.192426    -16.757238    4.552827    -30.075497    101.613388    -13.955441    -43.262501    26.837435    -1.507725    -6.275560    46.380062    48.680420    3.088601    -11.279952    -2.264935    22.482464    -100.525261    7.596141    -1.631753    -5.484739    9.666314    -10.613996    2.706564    -7.432420    13.672305    1.856897    -2.159880    36.231438    -7.028686    3.939720    -2.526762    0.597237    27.697641    -10.093604    10.851499    -12.718475    -11.611807    
85.295380    89.690704    -58.844398    -4.327443    -4.723264    -74.235680    -3.736736    7.694829    -3.483410    1.821836    6.355751    -13.660968    9.881703    10.769962    -14.493999    -19.417940    -0.786776    4.683485    -48.046017    27.666428    -8.112441    -16.696117    4.485348    -29.919737    101.527725    -13.847555    -43.377766    26.879110    -1.477811    -6.199857    46.203842    48.672356    3.307426    -11.298188    -2.272482    22.511644    -100.393616    7.608886    -1.723475    -5.175491    9.191111    -10.551100    2.735482    -7.418893    13.759671    1.667184    -2.045355    36.268948    -6.698617    4.233489    -3.011584    0.573938    26.172190    -9.952650    10.485062    -13.029172    -11.533534    
85.534096    89.700043    -59.303177    -4.121869    -4.541789    -74.458359    -3.616986    7.513453    -3.479120    1.915798    6.400764    -13.568105    9.698721    10.609090    -14.364081    -19.469944    -0.825400    4.652174    -48.189522    27.741005    -8.017986    -16.529327    4.422153    -29.794697    101.417862    -13.673056    -43.368881    26.915901    -1.453640    -6.114588    46.000561    48.651112    3.560601    -11.362978    -2.269051    22.551664    -100.224472    7.621097    -1.868922    -4.835591    8.703569    -10.452188    2.751089    -7.386381    13.803118    1.488696    -1.926621    36.292942    -6.340169    4.455857    -3.564962    0.531175    24.783741    -9.735132    10.155537    -13.202669    -11.495686    
85.781921    89.711868    -59.769981    -3.930694    -4.344240    -74.664856    -3.464925    7.369825    -3.490153    2.015132    6.433463    -13.478668    9.515870    10.435198    -14.237045    -19.527014    -0.801954    4.608130    -48.317432    27.761057    -7.957890    -16.469868    4.388385    -29.535612    101.400223    -13.556717    -43.330894    26.945866    -1.428690    -6.020411    45.781319    48.598282    3.827631    -11.417405    -2.270239    22.603228    -100.070015    7.628113    -1.992535    -4.465152    8.205937    -10.316791    2.751138    -7.331497    13.802141    1.321968    -1.804290    36.302399    -5.950612    4.616017    -4.166207    0.462764    23.530121    -9.448308    9.858759    -13.249327    -11.482713    
86.037849    89.725891    -60.244007    -3.756500    -4.132793    -74.852394    -3.279813    7.269735    -3.515059    2.114502    6.448315    -13.392388    9.337495    10.255117    -14.113507    -19.581026    -0.786434    4.552008    -48.449818    27.806509    -7.929199    -16.320070    4.281368    -29.343864    101.350624    -13.393980    -43.225582    26.966290    -1.402696    -5.917479    45.544945    48.515881    4.112052    -11.453428    -2.315560    22.667986    -99.939064    7.624453    -2.050579    -4.065344    7.699462    -10.143744    2.733410    -7.250809    13.756183    1.165264    -1.680484    36.296925    -5.528563    4.723386    -4.786505    0.366018    22.403324    -9.106530    9.589540    -13.185247    -11.482121    
86.300926    89.741745    -60.724266    -3.600236    -3.910272    -75.018845    -3.063663    7.216465    -3.551524    2.214767    6.439603    -13.312584    9.165665    10.076112    -13.998353    -19.630941    -0.750688    4.477642    -48.584858    27.832552    -7.923091    -16.168137    4.196567    -29.125954    101.299088    -13.217567    -43.058052    26.977131    -1.364036    -5.812262    45.287354    48.390987    4.420484    -11.491144    -2.331329    22.745213    -99.786949    7.595550    -2.095054    -3.638944    7.183918    -9.931460    2.696468    -7.140716    13.665545    1.015000    -1.558625    36.276478    -5.074424    4.786533    -5.391685    0.241800    21.391390    -8.729751    9.340769    -13.029698    -11.486128    
86.570313    89.758865    -61.209614    -3.461622    -3.679606    -75.162651    -2.818444    7.211179    -3.597162    2.308758    6.402897    -13.236415    9.004777    9.907046    -13.889944    -19.667875    -0.781612    4.391651    -48.751518    27.914827    -7.901798    -15.888758    4.086940    -29.010435    101.212883    -12.978764    -42.783295    26.968010    -1.397555    -5.702277    45.045410    48.313911    4.717800    -11.612638    -2.382331    22.834263    -99.622200    7.577736    -2.169366    -3.189506    6.658016    -9.678032    2.639294    -6.997898    13.530415    0.866301    -1.443061    36.241646    -4.589833    4.812805    -5.946384    0.093726    20.480360    -8.341546    9.104030    -12.802845    -11.491110    
86.845390    89.776672    -61.698769    -3.338980    -3.444011    -75.282532    -2.548589    7.252450    -3.649368    2.398949    6.334939    -13.168284    8.856427    9.754420    -13.793097    -19.699347    -0.739638    4.288352    -48.909950    27.909098    -7.912226    -15.747953    4.048578    -28.767813    101.203850    -12.808476    -42.520550    26.952887    -1.367946    -5.595810    44.789387    48.139103    5.017285    -11.623587    -2.365477    22.933857    -99.513428    7.520775    -2.136572    -2.721461    6.119008    -9.381626    2.561373    -6.818785    13.351076    0.713466    -1.338966    36.193153    -4.077946    4.807489    -6.417813    -0.072412    19.656698    -7.966572    8.870891    -12.525089    -11.497816    
